<?xml version="1.0" standalone="no"?>
<!DOCTYPE svg PUBLIC "-//W3C//DTD SVG 20010904//EN"
 "http://www.w3.org/TR/2001/REC-SVG-20010904/DTD/svg10.dtd">
<svg version="1.0" xmlns="http://www.w3.org/2000/svg"
 width="229.000000pt" height="229.000000pt" viewBox="0 0 229.000000 229.000000"
 preserveAspectRatio="xMidYMid meet">
<metadata>
Created by potrace 1.14, written by Peter Selinger 2001-2017
</metadata>
<g transform="translate(0.000000,229.000000) scale(0.100000,-0.100000)"
fill="#000000" stroke="none">
<path d="M159 2258 c0 -7 -1 -514 -2 -1126 -2 -982 0 -1115 13 -1121 8 -3 449
-6 980 -5 l965 1 0 34 0 34 -945 1 c-520 1 -947 2 -950 3 -3 0 -5 493 -5 1094
l0 1092 -27 3 c-18 2 -28 -2 -29 -10z"/>
<path d="M1770 1746 l0 -35 121 -3 121 -3 -112 -130 c-62 -71 -127 -146 -144
-165 -17 -19 -74 -84 -125 -143 l-94 -108 -76 75 c-42 42 -81 72 -86 68 -9 -6
-231 -256 -315 -355 l-26 -29 -77 83 c-66 70 -80 80 -91 68 -7 -8 -89 -102
-182 -209 -93 -107 -179 -206 -191 -220 -75 -86 -72 -79 -43 -105 20 -18 21
-18 53 20 18 22 110 128 205 237 l173 197 77 -80 76 -81 41 44 c66 73 125 139
220 246 l90 102 77 -77 c43 -42 79 -75 81 -72 20 24 347 399 362 415 11 11 49
55 85 98 l65 77 3 -141 3 -140 28 0 29 0 -1 198 -2 197 -172 3 -173 2 0 -34z"/>
</g>
</svg>
